<?xml version="1.0" encoding="UTF-8"?>
<svg id="_レイヤー_1" data-name="レイヤー 1" xmlns="http://www.w3.org/2000/svg" viewBox="0 0 1389.48 262.3">
  <defs>
    <style>
      .cls-1 {
        fill: #ce0000;
        stroke: #fff;
        stroke-miterlimit: 10;
      }
    </style>
  </defs>
  <path class="cls-1" d="M1084.16,253.02c-9.28,8.27-24.12,7.6-35.77,5.42-15.23-3.06-25.07-13.37-36.33-24.77-10.12-11.2-25.2-22.89-23.94-39.38,1.09-12.06,13.89-25.21,26.2-22.44,7.28,1.69,14.85,8.84,20.84,13.05,10.92,8.6,10.68-2.85,10.76-11.18-.05-24.11.12-63.87-.06-87.71-.17-3.5-.12-8.33-2.39-10-1.65-.97-4.38.79-8.03,4.21-49.5,50.93-92.74,107.94-140.85,160.24-11.45,12.8-30.61,23-47.54,17.17-10.56-3.6-11.73-13.54-5.73-23.55,2.53-4.48,6.02-8.96,9.64-13.26,55.36-60.59,106.93-126.28,162.98-185.75,9.03-9.29,18.66-19.01,30.49-24.34,22.08-9.99,46.45-5.09,46.87,22.88-.07,63.95,3.19,130.19,1.14,193.94-.62,8.98-1.68,19.25-8.16,25.37l-.12.11Z"/>
  <path class="cls-1" d="M408.22,255.69c-7.17-4.07-7.54-10.46-7.58-19.8.18-37.15.7-108.43.87-139.42.77-14.04-3.77-18.28-14.77-26.76-6.53-5-14.99-11.04-20.98-14.85-7.49-4.63-12.47-7.45-12.48,1.59-.51,34.28-1.22,137.63-1.71,185.05-.12,8.64.28,13.44-5.15,16.08-4.17,1.92-8.95,2.35-13.63,2.43-10.45.25-21.83-3.91-24.53-15.11-.96-3.29-1.4-7-1.65-10.91-2.19-57.98,1.34-117.27,1.05-175.69.12-11.67-1.01-24.33.72-35.73,1.53-10.72,7.86-15.16,18.51-16.17,9.74-.93,20.38-.48,30.27-.53,10.63.01,22.34.79,31.12,5.34,7.93,3.87,15.12,9.26,22.24,14.51,11.18,8.48,21.04,16.38,28.16,27.74,4.34,6.96,5.72,12.75,5.99,20.28.46,37.2.6,119.5.91,160.25-.04,7.84.81,17.23-4.14,20.81-9.2,6.38-23.48,6.02-33.09.94l-.11-.07Z"/>
  <path class="cls-1" d="M624.5,84.15c-3.71,38.52-1.01,78.99-1.48,117.83-.22,15.57,3.95,36.22-3.23,49.55-7.2,12.02-27.81,13.92-36.94,3.42-2.88-3.41-4.35-8-4.97-13.3-1.79-60.85.64-122.09-.15-183.02,1.03-16.65-6.28-42.66,13.31-50.39,27.69-8.07,44.85,11.57,62.72,31.29,21.96,22.73,54.75,56.8,73.61,76.32,20.33,15.08,15.76,38.95-6.6,47.94-16.45,11.79-84.13-86.76-96.24-79.7l-.04.06Z"/>
  <path class="cls-1" d="M1257.31,173.23c-10.99-.15-19.71,15.9-26.48,23.51-12.3,15.05-24.95,31.34-38.99,45.09-5.79,5.48-11.96,10.2-19.2,13.38-9.89,4.23-22.16,6.14-32.19,3.3-36.89-9.15,82.08-117.12,97.24-140.28,5.14-6.1,10.92-13.98,19.06-14.14,6.47-.37,13.88,5.05,18.57,10.44,31.35,34.97,62.66,71.29,91.5,108.07,5.49,7.62,14.83,18.53,11.9,27.91-4.34,9.87-20.83,9.5-30.22,7.71-14.68-2.63-25.34-13.14-34.77-24.68-11.59-14.01-22.34-28.77-34.07-42.61-6.04-6.78-12.63-16.81-22.21-17.69h-.13Z"/>
  <path class="cls-1" d="M149.38,82.49c2.27,9.09,10.89,16.6,16.21,24.77,28.11,39.21,60.22,76.21,87.5,116.18,2.93,4.33,6.13,9.47,7.62,14.07,7.42,22.54-28.17,17.8-39.43,11.08-11.59-5.95-19.75-18.53-27.64-29.76-7.16-10.35-14.05-20.82-21.19-31.09-12.07-17.16-24.88-34.73-37.83-51.36-5.1-6.24-12.82-12.53-20.17-6.86-8.27,6.16-16.59,22.87-22.77,33.43-17.76,31.22-32.35,65.25-52.31,83.05-7.26,5.83-17.07,8.63-26.31,7-5.9-1.02-11.4-4.63-12.34-10.72-.77-4.29.53-9.59,2.96-15.11,22.85-44.31,52.73-85.38,76.63-129.24,8-14.19,16.68-27.51,24.84-41.9,9.71-16.46,17.44-36.85,33.4-48.17,3.18-2.18,6.69-3.87,10.36-5.08,10.02-3.31,27.76-4.57,30.11,7.53,1.36,8.71-8.48,22.2-13.79,31.47-3.48,5.87-7.03,12.2-10.13,18.27-3.92,8.15-7.12,14.25-5.74,22.32l.03.13Z"/>
  <path class="cls-1" d="M532.82,13.51c4.1,5.67,5.05,14.3,5.37,21.63,1.88,67.35.65,135.83-.13,203.54-.62,18.46-16.44,25.57-32.3,20.05-8.98-2.25-13.42-8.95-12.35-18,0-32.79.04-160.05.05-211.03.49-6.9-1.64-13.49,3.04-18.75,9.75-7.51,28.12-8.36,36.23,2.44l.09.13Z"/>
  <path class="cls-1" d="M776.99,9.88c53.18-18.92,30.18,61.3,34.52,91.52,2.84,42.68-1.47,88.55-.93,131.75.22,10.18-.77,19.76-9.77,24.32-16.5,9.48-34.6-.15-35.01-19.65-1.72-62.2,1.05-124.51-.46-186.56.31-13.84-2.12-33.36,11.51-41.3l.15-.08Z"/>
  <path class="cls-1" d="M222.78,7.85c8.15-4.72,19.54-2.74,25.77,4.26,8.81,10.19,6.99,25.96,7.38,38.8-.71,40.79,5.49,83.11.1,122.98-3.84,16.21-14.92,5.76-21.49-2.84-28.05-34.62-21.47-58.27-21.96-99.69.06-9.09.08-18.16-.18-27.25-.14-12.49-1.84-29.01,10.25-36.17l.14-.08Z"/>
  <path class="cls-1" d="M841.04,18.48c9.35-7.57,25.45-5.58,36.43-2.45,14.3,4.35,26.05,17.56,36.17,28.68,9.64,11.47,23.48,25.56,22.76,40.08-.59,12.42-11.67,24.77-24.53,24.19-11.52-1.07-18.92-10.52-27.22-19.7-4.89-5.61-9.75-11.25-14.65-16.85-8.48-11.06-42.89-40.26-29.07-53.85l.11-.1Z"/>
  <path class="cls-1" d="M1141.58,38.54c-21.21-29.03,2.36-39.07,29.38-28.74,15.17,5.98,26.77,18.02,37.91,29.63,9.19,10.45,24.1,23.47,24.18,37.06-.09,8.35-5,16.28-11.58,21.29-17.98,13.56-32.71-3.01-44.63-16.7-11.92-13.97-24.34-27.48-35.13-42.36l-.12-.18Z"/>
  <path class="cls-1" d="M1341.02,14.76c11.06-6.42,25.93-10.84,38.45-6.88,5.45,1.79,9.64,6.07,9.51,11.87-.19,11.69-12.93,24.3-21.21,33.01-7.08,7.29-14.07,14.49-20.78,22.12-9.91,10.25-21.24,29.11-36.37,27.3-9.46-1.56-18.22-9.85-20.51-19.09-2.99-14.27,8.54-25.01,17.42-35.94,10.1-11.65,20.32-24.36,33.32-32.29l.18-.11Z"/>
</svg>